<?xml version="1.0" encoding="utf-8"?>
<!-- Generator: Adobe Illustrator 25.4.1, SVG Export Plug-In . SVG Version: 6.00 Build 0)  -->
<svg version="1.1" id="Layer_1" xmlns="http://www.w3.org/2000/svg" xmlns:xlink="http://www.w3.org/1999/xlink" x="0px" y="0px"
	 viewBox="0 0 158.5 158.6" style="enable-background:new 0 0 158.5 158.6;" xml:space="preserve">
<style type="text/css">
	.st0{fill-rule:evenodd;clip-rule:evenodd;fill:#FFFFFF;}
	.st1{fill-rule:evenodd;clip-rule:evenodd;fill:#59529F;}
	.st2{fill-rule:evenodd;clip-rule:evenodd;fill:#532D7B;}
	.st3{fill-rule:evenodd;clip-rule:evenodd;fill:#2A4B8F;}
	.st4{fill-rule:evenodd;clip-rule:evenodd;fill:#75348A;}
	.st5{fill-rule:evenodd;clip-rule:evenodd;fill:#146CB5;}
	.st6{fill-rule:evenodd;clip-rule:evenodd;fill:#2B2E69;}
</style>
<path id="Fill-276" class="st0" d="M12,136.2c-0.1,0.7-0.3,1.3-0.5,1.7c-0.3,0.5-0.6,0.8-1,1.1s-0.8,0.5-1.3,0.6s-1,0.2-1.5,0.2
	s-1,0-1.4-0.2s-0.8-0.3-1.1-0.6c-0.3-0.3-0.5-0.6-0.7-1.1c-0.2-0.4-0.2-1-0.1-1.6c0-0.4,0.2-0.8,0.3-1.3s0.4-1,0.8-1.5l1.6,0.6
	c-0.1,0.3-0.2,0.5-0.3,0.6s-0.2,0.3-0.2,0.5s-0.1,0.3-0.1,0.5s-0.1,0.3-0.1,0.5c0,0.3,0,0.6,0,0.9c0.1,0.3,0.2,0.4,0.4,0.6
	c0.2,0.1,0.4,0.3,0.6,0.3s0.5,0.1,0.7,0.1c0.6,0,1.1-0.2,1.4-0.5c0.3-0.3,0.5-0.8,0.6-1.5l1.2-9.1h1.9L12,136.2z"/>
<path class="st0" d="M36.9,135.4c-0.3-0.3-0.4-0.7-0.3-1.2c0-0.3,0.1-0.5,0.2-0.8c0.2-0.2,0.3-0.3,0.5-0.5c0.2-0.1,0.4-0.2,0.6-0.3
	c0.2,0,0.4-0.1,0.6-0.1c0.3,0,0.5,0,0.8,0s0.5,0.1,0.6,0.1l0.5-1.5c-0.2-0.1-0.5-0.2-0.9-0.2c-0.3,0-0.7-0.1-1.1-0.1
	c-0.5,0-0.9,0.1-1.4,0.2c-0.4,0.1-0.8,0.3-1.2,0.6c-0.3,0.2-0.6,0.5-0.9,1c-0.3,0.4-0.4,0.9-0.5,1.4c0,0.2,0,0.5,0,0.8
	c0.1,0.3,0.2,0.5,0.3,0.8h-4.6c-0.1,0-0.2-0.1-0.3-0.1c-0.2-0.1-0.4-0.3-0.5-0.4c0-0.2,0.1-0.3,0.1-0.5s0-0.3,0.1-0.5
	c0-0.5,0-0.9,0-1.3c-0.1-0.4-0.2-0.7-0.5-1c-0.2-0.3-0.5-0.5-0.9-0.7s-0.8-0.2-1.3-0.2s-0.9,0.1-1.3,0.2c-0.4,0.2-0.8,0.4-1.1,0.7
	c-0.3,0.3-0.6,0.7-0.8,1.1s-0.4,0.9-0.5,1.4c0,0.2-0.1,0.4-0.2,0.6c0,0.1-0.1,0.2-0.2,0.4c-0.1,0.1-0.2,0.2-0.3,0.2
	s-0.2,0.1-0.4,0.1h-5.3h-0.1c-0.1,0-0.3,0-0.4,0s-0.3-0.1-0.3-0.2c-0.1-0.1-0.2-0.2-0.2-0.4s0-0.4,0-0.6l1-7.4h-1.9l-1.1,8.1
	c0,0.4,0,0.7,0.1,1c0.2,0.3,0.4,0.5,0.7,0.7s0.6,0.3,1,0.3c0.3,0,0.6,0.1,0.9,0.1c0.1,0,0.2,0,0.3,0H23h0.1c0.2-0.1,0.5-0.3,0.8-0.6
	c0.3,0.3,0.7,0.5,1,0.6s0.7,0.2,1.1,0.2s0.8,0,1.2-0.2h0.1c0.4-0.2,0.8-0.4,1.2-0.8c0.1,0.2,0.2,0.3,0.4,0.5
	c0.2,0.1,0.3,0.2,0.5,0.3c0.1,0,0.1,0,0.2,0h3.8l0,0h6.1l0.2-1.6h-1.9C37.6,135.9,37.2,135.7,36.9,135.4z M27.9,134.4
	c0,0.4-0.2,0.8-0.5,1c-0.2,0.3-0.6,0.4-1,0.4c-0.3,0-0.5,0-0.8-0.2c-0.2-0.1-0.4-0.3-0.7-0.5c0-0.4,0.1-0.7,0.2-1s0.2-0.5,0.4-0.8
	c0.1-0.3,0.3-0.4,0.5-0.5s0.4-0.2,0.7-0.2c0.4,0,0.7,0.2,0.9,0.5C27.9,133.4,27.9,133.8,27.9,134.4z"/>
<path id="Fill-284" class="st0" d="M44.1,127.1c-0.1-0.3-0.1-0.5-0.1-0.7c0-0.4,0.3-0.8,0.5-1c0.3-0.3,0.7-0.4,1.2-0.4
	c0.1,0,0.3,0,0.4,0s0.3,0,0.4,0.1l-0.3,0.8c-0.2-0.1-0.4-0.1-0.6-0.1c-0.3,0-0.5,0-0.6,0.2c-0.1,0.1-0.2,0.3-0.3,0.5s0,0.4,0.2,0.5
	c0.1,0.1,0.3,0.2,0.6,0.2h0.8l-0.1,0.8h-2.8l0.1-0.8L44.1,127.1L44.1,127.1z M43.8,128.7h1.9l-0.8,6.4H43L43.8,128.7z M48.1,136.5
	c-0.3,0.3-0.6,0.5-1,0.7c-0.4,0.1-0.8,0.2-1.4,0.2h-4.4l0.2-1.6h3.6c0.5,0,1-0.1,1.2-0.4c0.3-0.3,0.4-0.7,0.5-1.3l0.9-7h1.9
	l-0.9,7.3c0,0.4,0,0.7,0.3,1s0.6,0.4,1.1,0.4c0.1,0,0.3,0,0.3,0.2c0,0.1,0,0.3,0,0.6s-0.1,0.5-0.1,0.6s-0.1,0.2-0.1,0.2
	c-0.2,0-0.4,0-0.6,0s-0.4-0.1-0.6-0.2s-0.3-0.2-0.5-0.3C48.4,136.8,48.3,136.6,48.1,136.5L48.1,136.5z"/>
<path id="Fill-286" class="st0" d="M50.2,135.8c0.3,0,0.5,0,0.7-0.1c0.2,0,0.3-0.1,0.5-0.3c0.1-0.1,0.2-0.3,0.3-0.4
	c0-0.2,0.1-0.3,0.1-0.5l0.9-7.3h1.9l-1,7.7c0,0.4-0.2,0.8-0.3,1.1s-0.3,0.5-0.6,0.8c-0.3,0.2-0.6,0.4-1,0.5s-0.9,0.2-1.5,0.2
	c-0.2,0-0.4,0-0.5-0.2c-0.1-0.1-0.1-0.3-0.1-0.5c0-0.3,0.1-0.5,0.2-0.6C49.9,135.9,50,135.8,50.2,135.8"/>
<path id="Fill-288" class="st0" d="M62.7,140.8c0-0.3,0.2-0.5,0.4-0.7s0.5-0.3,0.8-0.3c0.3,0,0.5,0.1,0.7,0.3s0.2,0.4,0.2,0.7
	s-0.2,0.5-0.4,0.7s-0.5,0.3-0.7,0.3c-0.3,0-0.5-0.1-0.7-0.3S62.6,141.1,62.7,140.8 M60.2,140.8c0-0.3,0.2-0.5,0.4-0.7
	s0.5-0.3,0.8-0.3s0.5,0.1,0.7,0.3s0.2,0.4,0.2,0.7s-0.2,0.5-0.4,0.7s-0.5,0.3-0.7,0.3c-0.3,0-0.5-0.1-0.7-0.3S60.2,141.1,60.2,140.8
	 M60.5,135.2c-0.1,0.6,0.1,1.1,0.6,1.4s1.2,0.5,2.2,0.5c0.5,0,0.9,0,1.3-0.1s0.7-0.1,1-0.2s0.5-0.2,0.6-0.3s0.2-0.3,0.3-0.3
	c0-0.2-0.1-0.3-0.3-0.5c-0.3-0.2-0.6-0.4-1.1-0.7s-1-0.6-1.2-1s-0.3-0.8-0.3-1.3c0-0.3,0.2-0.7,0.3-1c0.2-0.3,0.4-0.6,0.7-0.8
	s0.7-0.4,1.1-0.5s0.9-0.2,1.4-0.2c0.1,0,0.3,0,0.4,0s0.3,0,0.5,0s0.3,0,0.5,0.1c0.1,0,0.3,0.1,0.4,0.1l-0.5,1.4
	c-0.1,0-0.3-0.1-0.5-0.1s-0.5,0-0.7,0s-0.3,0-0.5,0s-0.4,0.1-0.5,0.2c-0.2,0.1-0.3,0.2-0.4,0.3s-0.2,0.3-0.2,0.5
	c0,0.1,0,0.3,0.1,0.4s0.2,0.3,0.3,0.4c0.1,0.1,0.3,0.3,0.5,0.3c0.2,0.1,0.3,0.2,0.5,0.3c0.3,0.1,0.5,0.3,0.7,0.4s0.4,0.3,0.5,0.5
	s0.3,0.3,0.3,0.5c0.1,0.2,0.1,0.4,0.1,0.7c0,0.4-0.2,0.8-0.5,1.1s-0.6,0.6-1,0.8c-0.4,0.3-1,0.4-1.6,0.5s-1.3,0.2-2.1,0.2
	c-0.8,0-1.5,0-2.1-0.2s-1.1-0.3-1.5-0.6s-0.7-0.6-0.9-1.1c-0.2-0.4-0.2-1-0.1-1.6c0-0.3,0.2-0.7,0.3-1.2c0.2-0.5,0.4-1,0.8-1.5
	l1.6,0.6c-0.2,0.3-0.3,0.7-0.5,1.1C60.6,134.6,60.5,134.9,60.5,135.2"/>
<path id="Fill-290" class="st0" d="M71.8,135.8c0.5,0,0.8-0.1,1-0.3c0.3-0.2,0.4-0.5,0.5-1v-0.3c0-0.5,0-0.8-0.3-1.1
	s-0.7-0.4-1.3-0.4h-1.3l0.2-1.6h1.7c0.6,0,1.1,0.1,1.5,0.2s0.7,0.3,1,0.5c0.3,0.3,0.4,0.5,0.5,0.8s0.1,0.7,0.1,1.1l-0.1,0.9
	c-0.1,0.9-0.4,1.6-0.8,2s-1.1,0.6-2,0.6h-3.4c0.1-0.5,0.1-1,0.2-1.4C70.1,135.8,71,135.8,71.8,135.8z"/>
<path id="Fill-292" class="st0" d="M78.5,134.3c-0.1,0.5,0,0.9,0.2,1.2s0.5,0.4,1.1,0.4h1.1l0.2-1.6c0-0.2,0-0.4,0-0.6
	s-0.1-0.3-0.1-0.5c-0.1-0.2-0.2-0.3-0.3-0.3c-0.1-0.1-0.3-0.1-0.5-0.1s-0.3,0-0.5,0.1s-0.3,0.2-0.5,0.3c-0.1,0.1-0.3,0.3-0.4,0.5
	C78.6,133.8,78.5,134,78.5,134.3 M78.8,138.3c0.3,0,0.5,0,0.8,0c0.2,0,0.4-0.1,0.5-0.1c0.2-0.1,0.3-0.2,0.4-0.3s0.1-0.3,0.2-0.5
	h-1.3c-0.5,0-0.9,0-1.2-0.2c-0.4-0.1-0.7-0.3-0.9-0.5c-0.3-0.3-0.4-0.5-0.5-0.9s-0.1-0.8-0.1-1.3c0-0.4,0.2-0.8,0.4-1.3
	c0.2-0.4,0.4-0.8,0.8-1.1c0.3-0.3,0.7-0.5,1.1-0.8c0.4-0.2,0.9-0.3,1.5-0.3c0.4,0,0.8,0.1,1.1,0.2s0.7,0.3,0.9,0.5
	c0.3,0.3,0.4,0.5,0.5,0.9s0.1,0.8,0.1,1.3l-0.2,1.7h1c0.1,0,0.2,0,0.3,0.2s0,0.3,0,0.6s-0.1,0.5-0.1,0.6s-0.1,0.1-0.1,0.1h-1.3
	c-0.1,0.4-0.3,0.8-0.5,1.1s-0.5,0.5-0.8,0.8c-0.3,0.2-0.7,0.3-1.1,0.4s-0.9,0.1-1.4,0.1c-0.3,0-0.6,0-0.9,0s-0.6-0.1-0.8-0.2
	l0.5-1.5c0.2,0,0.4,0.1,0.7,0.1C78.2,138.3,78.5,138.3,78.8,138.3"/>
<path id="Fill-294" class="st0" d="M87.8,132.4c-0.2,0-0.3,0-0.5,0s-0.3,0-0.5,0.1c-0.2,0-0.3,0.1-0.4,0.1s-0.2,0.1-0.3,0.1
	c0.3,0.3,0.7,0.6,0.9,1c0.3,0.3,0.5,0.6,0.6,1c0.1-0.1,0.3-0.2,0.5-0.3s0.3-0.3,0.4-0.4s0.3-0.3,0.3-0.4c0.1-0.1,0.1-0.3,0.2-0.5
	c0-0.1,0-0.2,0-0.3s-0.1-0.2-0.2-0.3s-0.2-0.1-0.4-0.2C88.2,132.4,88.1,132.4,87.8,132.4L87.8,132.4z M83.7,137.1
	c-0.3,0-0.4-0.1-0.5-0.2s-0.1-0.3-0.1-0.5c0-0.3,0.1-0.5,0.2-0.6s0.2-0.2,0.4-0.2h1.5c0.3,0,0.5,0,0.7,0s0.4-0.1,0.5-0.1
	c-0.2-0.2-0.4-0.4-0.5-0.6c-0.2-0.2-0.3-0.3-0.5-0.5c-0.1-0.1-0.3-0.3-0.5-0.4s-0.4-0.3-0.6-0.4c0-0.1,0-0.2,0.1-0.4
	s0.1-0.3,0.1-0.5s0.1-0.3,0.2-0.5c0-0.1,0.1-0.3,0.1-0.3c0.2-0.1,0.4-0.2,0.6-0.3c0.3-0.1,0.5-0.2,0.8-0.3s0.6-0.2,0.9-0.2
	s0.6-0.1,0.9-0.1c0.5,0,0.8,0,1.2,0.1c0.4,0.1,0.7,0.2,1,0.4s0.5,0.4,0.6,0.7s0.2,0.6,0.1,0.9c0,0.3-0.1,0.5-0.2,0.7
	c-0.1,0.3-0.3,0.5-0.5,0.7s-0.4,0.4-0.6,0.6c-0.3,0.2-0.5,0.4-0.8,0.5c0.1,0,0.3,0,0.5,0.1c0.2,0,0.4,0,0.5,0h1.4
	c0.1,0,0.2,0,0.3,0.2c0,0.1,0,0.3,0,0.6s-0.1,0.5-0.1,0.6s-0.1,0.1-0.1,0.1h-1.9c-0.5,0-0.9,0-1.3-0.2c-0.3-0.1-0.6-0.2-0.8-0.4
	c-0.3,0.2-0.8,0.3-1.2,0.4c-0.4,0.1-0.9,0.2-1.3,0.2L83.7,137.1L83.7,137.1z"/>
<path id="Fill-296" class="st0" d="M95.9,137.2c-0.5,0-0.8-0.1-1.2-0.2c-0.3-0.2-0.5-0.4-0.7-0.6c-0.3,0.3-0.6,0.5-1.1,0.6
	s-1,0.2-1.7,0.2c-0.2,0-0.4,0-0.5-0.2c-0.1-0.1-0.1-0.3-0.1-0.5c0-0.3,0.1-0.5,0.2-0.6s0.2-0.2,0.4-0.2c0.5,0,0.9-0.1,1.1-0.3
	c0.3-0.2,0.4-0.5,0.5-1l0.3-2.2H95l-0.3,2.3c0,0.2,0,0.3,0,0.4s0,0.3,0.1,0.3c0,0.1,0.2,0.2,0.3,0.3c0.1,0,0.3,0.1,0.5,0.1
	c0.3,0,0.5-0.1,0.7-0.3s0.3-0.5,0.3-1.1l0.3-2.2h1.9l-0.3,2.3c0,0.2,0,0.3,0,0.4s0,0.3,0.1,0.3c0,0.1,0.2,0.2,0.3,0.3
	c0.1,0,0.3,0.1,0.5,0.1c0.3,0,0.6-0.1,0.7-0.3c0.2-0.2,0.3-0.5,0.3-1l0.4-3.4h1.9l-0.4,3.3c0,0.4,0,0.7,0.3,1s0.6,0.4,1.1,0.4
	c0.1,0,0.3,0,0.3,0.2c0,0.1,0,0.3,0,0.6s-0.1,0.5-0.1,0.6s-0.1,0.2-0.1,0.2c-0.2,0-0.4,0-0.5,0c-0.2,0-0.4-0.1-0.6-0.1
	c-0.2-0.1-0.4-0.2-0.5-0.3s-0.3-0.3-0.4-0.4c-0.3,0.3-0.5,0.5-0.8,0.7c-0.3,0.1-0.7,0.2-1.1,0.2c-0.5,0-0.8-0.1-1.2-0.2
	c-0.3-0.2-0.5-0.4-0.6-0.6C97.4,136.9,96.7,137.2,95.9,137.2"/>
<path id="Fill-298" class="st0" d="M103.8,135.4c0.3,0,0.5,0,0.7-0.1c0.2,0,0.3-0.1,0.5-0.3c0.1-0.1,0.2-0.3,0.3-0.4
	c0-0.2,0.1-0.3,0.1-0.5l0.9-7.3h1.9l-1,7.7c0,0.4-0.2,0.8-0.3,1.1c-0.1,0.3-0.3,0.5-0.6,0.8c-0.3,0.2-0.6,0.4-1,0.5
	s-0.9,0.2-1.5,0.2c-0.2,0-0.4,0-0.5-0.2c-0.1-0.1-0.1-0.3-0.1-0.5c0-0.3,0.1-0.5,0.2-0.6C103.5,135.5,103.6,135.4,103.8,135.4"/>
<polygon id="Fill-300" class="st0" points="111.9,127.2 110.6,137.4 108.7,137.4 110,127.2 "/>
<path id="Fill-302" class="st0" d="M117.8,128.9c0-0.3,0.2-0.5,0.4-0.7c0.2-0.2,0.5-0.3,0.8-0.3s0.5,0.1,0.7,0.3
	c0.2,0.2,0.2,0.4,0.2,0.7s-0.2,0.5-0.4,0.7c-0.2,0.2-0.5,0.3-0.7,0.3c-0.3,0-0.5-0.1-0.7-0.3S117.8,129.1,117.8,128.9 M115.9,139.8
	c-0.3,0-0.5,0-0.8,0c-0.2,0-0.4-0.1-0.5-0.1l0.4-1.5c0.1,0,0.2,0,0.3,0s0.2,0,0.3,0c0.3,0,0.6-0.1,0.8-0.3c0.2-0.2,0.3-0.5,0.3-1
	l0.7-5.7h1.9l-0.6,4.6h1.2c0.1,0,0.2,0,0.3,0.2c0,0.1,0,0.3,0,0.6s-0.1,0.5-0.1,0.6s-0.1,0.2-0.1,0.2h-1.4c-0.1,0.5-0.2,0.9-0.4,1.2
	c-0.2,0.3-0.4,0.5-0.6,0.8c-0.3,0.2-0.5,0.3-0.8,0.4C116.5,139.7,116.2,139.8,115.9,139.8"/>
<path id="Fill-304" class="st0" d="M120,137.4c-0.2,0-0.4,0-0.5-0.2c-0.1-0.1-0.2-0.3-0.1-0.5c0-0.3,0.1-0.5,0.2-0.6
	s0.2-0.2,0.4-0.2h4c0.5,0,0.8-0.1,1.1-0.3c0.2-0.2,0.4-0.5,0.4-1v-0.4c0.1-1-0.4-1.4-1.5-1.4h-3l0.2-1.6l4.3-4l1.1,1.2l-3,2.8h1.1
	c0.5,0,1,0.1,1.4,0.2s0.7,0.3,0.9,0.5c0.2,0.3,0.4,0.5,0.5,0.8s0.1,0.7,0,1.1l-0.1,0.9c-0.1,0.9-0.4,1.6-0.8,2
	c-0.5,0.4-1.1,0.6-2,0.6L120,137.4L120,137.4z"/>
<path id="Fill-306" class="st0" d="M128.5,139.8c-0.3,0-0.5,0-0.8,0c-0.2,0-0.4-0.1-0.5-0.1l0.4-1.5c0.1,0,0.2,0,0.3,0
	c0.1,0,0.2,0,0.3,0c0.3,0,0.6-0.1,0.8-0.3s0.3-0.5,0.3-1l0.8-5.7h1.9l-0.6,4.6h1.2c0.1,0,0.2,0,0.3,0.2c0,0.1,0,0.3,0,0.6
	s-0.1,0.5-0.1,0.6s-0.1,0.2-0.1,0.2h-1.4c-0.1,0.5-0.2,0.9-0.4,1.2s-0.4,0.5-0.6,0.8c-0.3,0.2-0.5,0.3-0.8,0.4
	C129.1,139.7,128.8,139.8,128.5,139.8"/>
<path id="Fill-308" class="st0" d="M137.5,132.7c-0.3,0-0.5,0.1-0.7,0.2s-0.4,0.3-0.5,0.5c-0.2,0.2-0.3,0.5-0.4,0.8s-0.2,0.6-0.3,1
	c0.3,0.3,0.5,0.4,0.7,0.5s0.5,0.2,0.8,0.2c0.4,0,0.7-0.1,1-0.4s0.4-0.6,0.5-1.1s0-1-0.2-1.3C138.2,132.8,137.9,132.7,137.5,132.7
	L137.5,132.7z M132.6,137.4c-0.2,0-0.4,0-0.5-0.2c-0.1-0.1-0.1-0.3-0.1-0.5c0-0.3,0.1-0.5,0.2-0.6s0.2-0.2,0.4-0.2h0.4
	c0.2,0,0.3,0,0.4-0.1s0.2-0.2,0.3-0.3s0.1-0.3,0.2-0.4c0-0.2,0.1-0.3,0.2-0.5c0.1-0.5,0.3-1,0.5-1.4s0.5-0.8,0.8-1.1
	s0.7-0.5,1.1-0.7s0.8-0.3,1.3-0.3s1,0.1,1.3,0.3c0.4,0.2,0.7,0.4,0.9,0.7c0.3,0.3,0.4,0.6,0.5,1s0.1,0.8,0,1.3c0,0.2,0,0.3-0.1,0.5
	s-0.1,0.3-0.1,0.5c0.1,0.2,0.3,0.3,0.5,0.4s0.5,0.2,0.7,0.2c0.1,0,0.2,0.1,0.2,0.2s0,0.3,0,0.6c0,0.2,0,0.3,0,0.4s0,0.2,0,0.3v0.1
	l0,0c-0.2,0-0.3,0-0.5,0s-0.3-0.1-0.5-0.1c-0.2-0.1-0.3-0.2-0.5-0.3s-0.3-0.3-0.4-0.5c-0.4,0.3-0.8,0.6-1.2,0.8s-0.8,0.2-1.3,0.2
	c-0.4,0-0.8,0-1.1-0.2c-0.3-0.1-0.7-0.3-1-0.6c-0.3,0.3-0.5,0.5-0.8,0.6s-0.6,0.2-1.1,0.2h-0.7L132.6,137.4L132.6,137.4z"/>
<path id="Fill-310" class="st0" d="M141.4,135.8c0.3,0,0.5,0,0.7-0.1c0.2,0,0.3-0.1,0.5-0.3c0.1-0.1,0.2-0.3,0.3-0.4
	c0-0.2,0.1-0.3,0.1-0.5l0.9-7.3h1.9l-1,7.7c0,0.4-0.2,0.8-0.3,1.1s-0.3,0.5-0.6,0.8c-0.3,0.2-0.6,0.4-1,0.5s-0.9,0.2-1.5,0.2
	c-0.2,0-0.4,0-0.5-0.2c-0.1-0.1-0.1-0.3-0.1-0.5c0-0.3,0.1-0.5,0.2-0.6C141.2,135.9,141.3,135.8,141.4,135.8"/>
<polygon id="Fill-312" class="st0" points="149.6,127.2 148.2,137.4 146.4,137.4 147.7,127.2 "/>
<path id="Fill-314" class="st0" d="M6.7,145.9c-0.3-0.1-0.7-0.2-1-0.3c-0.3,0-0.7-0.1-1.1-0.1c-0.2,0-0.4,0-0.6,0
	c-0.2,0-0.4,0.1-0.5,0.2c-0.2,0.1-0.3,0.2-0.4,0.3c-0.1,0.1-0.2,0.3-0.2,0.5s0,0.3,0,0.5c0,0.1,0.2,0.3,0.3,0.4s0.3,0.3,0.5,0.3
	c0.2,0.1,0.5,0.3,0.8,0.4c0.4,0.2,0.7,0.3,1.1,0.5c0.3,0.2,0.6,0.4,0.8,0.6s0.4,0.5,0.5,0.8s0.1,0.7,0,1.1c0,0.5-0.2,0.9-0.5,1.3
	s-0.5,0.7-0.9,0.9c-0.4,0.3-0.8,0.4-1.2,0.5c-0.5,0.1-0.9,0.2-1.4,0.2s-0.9,0-1.4-0.1s-1-0.2-1.5-0.4l0.6-1.6
	c0.4,0.2,0.9,0.3,1.3,0.4c0.4,0.1,0.8,0.1,1.2,0.1c0.5,0,1-0.1,1.3-0.3c0.3-0.2,0.5-0.5,0.5-0.8c0-0.2,0-0.3,0-0.5
	c0-0.1-0.2-0.3-0.3-0.4s-0.3-0.3-0.5-0.4s-0.5-0.3-0.8-0.4c-0.4-0.2-0.7-0.3-1-0.5s-0.5-0.4-0.8-0.6c-0.2-0.3-0.4-0.5-0.5-0.8
	s-0.1-0.6,0-1c0.1-0.5,0.2-0.9,0.5-1.3s0.5-0.7,0.9-0.9s0.8-0.4,1.2-0.5s0.8-0.2,1.3-0.2s0.9,0,1.4,0.1c0.4,0,0.8,0.2,1.2,0.3
	L6.7,145.9z"/>
<path id="Fill-316" class="st0" d="M12.5,150.6c-0.3,0-0.6,0-0.9,0s-0.5,0.1-0.8,0.2s-0.4,0.2-0.6,0.4c-0.1,0.2-0.3,0.3-0.3,0.6
	s0,0.5,0.2,0.7s0.4,0.3,0.8,0.3c0.3,0,0.5,0,0.8-0.1c0.2-0.1,0.4-0.2,0.5-0.4c0.2-0.2,0.3-0.3,0.4-0.5c0.1-0.2,0.1-0.4,0.2-0.6
	l0.1-0.5L12.5,150.6L12.5,150.6z M13,149.2c0-0.4,0-0.7-0.3-0.9s-0.6-0.3-1.2-0.3c-0.3,0-0.5,0-0.9,0.1s-0.7,0.2-1.1,0.3L9.3,147
	c0.3-0.1,0.7-0.2,1.2-0.3s0.9-0.1,1.3-0.1c1.2,0,2,0.3,2.5,0.7c0.5,0.5,0.7,1.2,0.5,2.1l-0.4,3c0,0.3,0,0.5-0.1,0.8
	c0,0.3,0,0.6,0,0.8h-1.8c0-0.1,0-0.3,0-0.5s0-0.3,0-0.5l0,0c-0.2,0.3-0.5,0.6-0.9,0.8s-0.8,0.3-1.3,0.3c-0.3,0-0.6,0-0.9-0.1
	c-0.3-0.1-0.6-0.2-0.8-0.4c-0.3-0.2-0.4-0.4-0.5-0.7S8,152.3,8,151.8c0.1-0.5,0.3-1,0.5-1.3c0.3-0.3,0.6-0.6,1.1-0.8s1-0.3,1.6-0.4
	S12.4,149.2,13,149.2L13,149.2L13,149.2z"/>
<path id="Fill-318" class="st0" d="M21.1,154l0.1-1l0,0c-0.3,0.4-0.5,0.6-1,0.8c-0.4,0.2-0.9,0.3-1.3,0.3s-0.8-0.1-1.1-0.2
	s-0.6-0.3-0.8-0.5s-0.3-0.5-0.4-0.8s-0.1-0.7,0-1.1l0.6-4.8h2l-0.5,4.1c0,0.3,0,0.5,0,0.8c0,0.2,0,0.4,0.1,0.6s0.2,0.3,0.4,0.4
	s0.4,0.1,0.6,0.1s0.4,0,0.6-0.1s0.4-0.2,0.5-0.3c0.2-0.2,0.3-0.4,0.4-0.6c0.1-0.3,0.2-0.6,0.3-1l0.5-4h2l-0.9,7.3H21.1L21.1,154z"/>
<path id="Fill-320" class="st0" d="M27.1,150.3c0,0.3,0,0.6,0,0.9s0.1,0.5,0.2,0.8c0.1,0.2,0.3,0.4,0.5,0.5s0.4,0.2,0.7,0.2
	s0.5,0,0.8-0.2s0.5-0.3,0.6-0.5c0.2-0.2,0.3-0.5,0.5-0.8c0.1-0.3,0.2-0.6,0.3-0.9s0-0.6,0-0.9s-0.1-0.5-0.3-0.8
	c-0.1-0.2-0.3-0.4-0.5-0.5s-0.5-0.2-0.7-0.2c-0.3,0-0.5,0-0.8,0.2c-0.3,0.1-0.4,0.3-0.6,0.5s-0.3,0.5-0.4,0.8
	C27.2,149.7,27.1,150,27.1,150.3L27.1,150.3z M31.3,143.8h2L32,154h-1.9l0.1-0.9l0,0c-0.3,0.4-0.7,0.7-1.1,0.8
	c-0.4,0.2-0.8,0.3-1.3,0.3s-0.9-0.1-1.3-0.3s-0.6-0.5-0.8-0.8s-0.4-0.8-0.4-1.2c-0.1-0.5-0.1-1,0-1.5s0.2-1.1,0.4-1.5
	c0.2-0.5,0.5-0.9,0.8-1.2s0.7-0.6,1.1-0.8s0.9-0.3,1.4-0.3c0.4,0,0.8,0.1,1.2,0.2c0.4,0.2,0.6,0.4,0.9,0.8l0,0L31.3,143.8z"/>
<path id="Fill-322" class="st0" d="M37.1,143.8l-0.2,1.7h-2l0.2-1.7H37.1z M36.8,146.6l-0.9,7.3h-2l0.9-7.3H36.8z"/>
<path id="Fill-324" class="st0" d="M45.2,148.1h1.4c0.5,0,1-0.1,1.3-0.3s0.5-0.5,0.5-1c0-0.3,0-0.4,0-0.6c-0.1-0.2-0.2-0.3-0.3-0.3
	c-0.1-0.1-0.3-0.1-0.5-0.2s-0.4,0-0.6,0h-1.4L45.2,148.1z M44.7,152.3h1.6c0.3,0,0.5,0,0.7,0s0.4-0.1,0.6-0.2s0.3-0.2,0.4-0.4
	c0.1-0.2,0.2-0.4,0.2-0.6c0-0.3,0-0.5-0.1-0.6c-0.1-0.2-0.2-0.3-0.3-0.4c-0.2-0.1-0.3-0.2-0.6-0.2s-0.5,0-0.8,0H45L44.7,152.3z
	 M43.7,144.1h4.1c0.4,0,0.8,0,1.2,0.1c0.3,0.1,0.7,0.3,0.9,0.4c0.3,0.2,0.4,0.5,0.5,0.8s0.1,0.7,0.1,1.1c-0.1,0.6-0.3,1.1-0.6,1.5
	s-0.8,0.6-1.2,0.8l0,0c0.3,0.1,0.5,0.2,0.7,0.3s0.4,0.3,0.5,0.5s0.3,0.4,0.3,0.7s0.1,0.6,0,0.9c0,0.4-0.2,0.7-0.3,1.1
	s-0.4,0.6-0.7,0.9c-0.3,0.3-0.7,0.5-1.1,0.6s-0.9,0.2-1.5,0.2h-4.2L43.7,144.1z"/>
<path id="Fill-326" class="st0" d="M58.4,154l0.1-1l0,0c-0.3,0.4-0.5,0.6-1,0.8c-0.4,0.2-0.9,0.3-1.3,0.3s-0.8-0.1-1.1-0.2
	c-0.3-0.1-0.6-0.3-0.8-0.5s-0.3-0.5-0.4-0.8s-0.1-0.7,0-1.1l0.6-4.8h2l-0.5,4.1c0,0.3,0,0.5,0,0.8c0,0.2,0,0.4,0.1,0.6
	s0.2,0.3,0.4,0.4c0.2,0.1,0.4,0.1,0.6,0.1s0.4,0,0.6-0.1s0.4-0.2,0.5-0.3s0.3-0.4,0.4-0.6c0.1-0.3,0.2-0.6,0.3-1l0.5-4h2l-0.9,7.3
	H58.4L58.4,154z"/>
<path id="Fill-328" class="st0" d="M69.4,148.4c-0.4-0.1-0.7-0.3-1-0.3s-0.6-0.1-0.9-0.1s-0.5,0-0.7,0.1s-0.3,0.3-0.3,0.5
	s0,0.4,0.2,0.5s0.5,0.3,1,0.4c0.4,0.1,0.7,0.3,1,0.4s0.5,0.3,0.7,0.5s0.3,0.4,0.4,0.6c0.1,0.3,0.1,0.5,0,0.8c0,0.4-0.2,0.8-0.4,1.1
	c-0.2,0.3-0.5,0.5-0.8,0.7s-0.6,0.3-1,0.4s-0.8,0.1-1.1,0.1c-0.5,0-0.9,0-1.4-0.1s-0.9-0.2-1.3-0.4l0.6-1.5c0.4,0.2,0.8,0.3,1.2,0.4
	c0.4,0.1,0.8,0.1,1.1,0.1c0.4,0,0.7,0,0.9-0.1c0.2-0.1,0.3-0.3,0.4-0.5c0-0.2,0-0.4-0.3-0.5c-0.2-0.1-0.6-0.3-1.1-0.5
	c-0.8-0.3-1.3-0.5-1.6-0.9c-0.3-0.3-0.4-0.8-0.4-1.3c0-0.4,0.2-0.7,0.4-1c0.2-0.3,0.4-0.5,0.7-0.7c0.3-0.2,0.6-0.3,1-0.4
	c0.3-0.1,0.7-0.1,1.1-0.1s0.8,0,1.2,0.1c0.4,0.1,0.8,0.2,1.1,0.3L69.4,148.4z"/>
<path id="Fill-330" class="st0" d="M75.3,143.8l-0.2,1.7h-2l0.2-1.7H75.3z M74.9,146.6l-0.9,7.3h-2l0.9-7.3H74.9z"/>
<path id="Fill-332" class="st0" d="M80.8,146.6l-0.1,1l0,0c0.3-0.4,0.5-0.6,1-0.8c0.4-0.2,0.9-0.3,1.3-0.3s0.8,0,1.1,0.2
	c0.3,0.1,0.6,0.3,0.8,0.5c0.2,0.3,0.3,0.5,0.4,0.8s0.1,0.7,0,1.1l-0.6,4.8h-2l0.5-4.1c0-0.3,0-0.5,0-0.8s0-0.5-0.1-0.6
	c-0.1-0.2-0.2-0.3-0.4-0.4c-0.2-0.1-0.4-0.1-0.6-0.1s-0.4,0-0.6,0.1s-0.4,0.2-0.5,0.3s-0.3,0.4-0.5,0.6c-0.1,0.3-0.2,0.6-0.3,0.9
	l-0.5,4h-2l0.9-7.3L80.8,146.6L80.8,146.6z"/>
<path id="Fill-334" class="st0" d="M91.7,147.8c-0.5,0-0.8,0.2-1.2,0.5c-0.3,0.3-0.6,0.7-0.7,1.2H93c0.1-0.5,0-0.9-0.3-1.2
	C92.5,148,92.2,147.8,91.7,147.8L91.7,147.8z M89.7,150.9c0,0.3,0,0.6,0.2,0.8c0.1,0.2,0.3,0.4,0.5,0.5s0.4,0.3,0.7,0.3
	c0.3,0.1,0.5,0.1,0.9,0.1c0.3,0,0.6,0,0.9,0s0.6-0.1,0.9-0.2v1.4c-0.3,0.1-0.7,0.2-1.1,0.2s-0.8,0.1-1.2,0.1c-0.7,0-1.2-0.1-1.7-0.3
	s-0.9-0.5-1.2-0.8s-0.5-0.7-0.6-1.2s-0.2-1-0.1-1.6c0.1-0.5,0.2-1.1,0.5-1.5c0.2-0.5,0.5-0.9,0.9-1.2c0.3-0.3,0.8-0.6,1.3-0.8
	s1-0.3,1.6-0.3s1,0.1,1.4,0.3s0.7,0.4,0.9,0.7c0.3,0.3,0.4,0.7,0.5,1.1c0.1,0.5,0.1,0.9,0,1.5l-0.1,0.8L89.7,150.9L89.7,150.9z"/>
<path id="Fill-336" class="st0" d="M102,148.4c-0.4-0.1-0.7-0.3-1-0.3s-0.6-0.1-0.9-0.1s-0.5,0-0.7,0.1s-0.3,0.3-0.3,0.5
	s0,0.4,0.2,0.5s0.5,0.3,1,0.4c0.4,0.1,0.7,0.3,1,0.4s0.5,0.3,0.7,0.5s0.3,0.4,0.4,0.6c0.1,0.3,0.1,0.5,0,0.8c0,0.4-0.2,0.8-0.4,1.1
	c-0.2,0.3-0.5,0.5-0.8,0.7s-0.6,0.3-1,0.4s-0.8,0.1-1.1,0.1c-0.5,0-0.9,0-1.4-0.1s-0.9-0.2-1.3-0.4l0.6-1.5c0.4,0.2,0.8,0.3,1.2,0.4
	c0.4,0.1,0.8,0.1,1.1,0.1c0.4,0,0.7,0,0.9-0.1c0.2-0.1,0.3-0.3,0.4-0.5c0-0.2,0-0.4-0.3-0.5c-0.2-0.1-0.6-0.3-1.1-0.5
	c-0.8-0.3-1.3-0.5-1.6-0.9c-0.3-0.3-0.4-0.8-0.4-1.3c0-0.4,0.2-0.7,0.4-1c0.2-0.3,0.4-0.5,0.7-0.7c0.3-0.2,0.6-0.3,1-0.4
	s0.7-0.1,1.1-0.1s0.8,0,1.2,0.1c0.4,0.1,0.8,0.2,1.1,0.3L102,148.4z"/>
<path id="Fill-338" class="st0" d="M110.6,148.4c-0.4-0.1-0.7-0.3-1-0.3s-0.6-0.1-0.9-0.1s-0.5,0-0.7,0.1s-0.3,0.3-0.3,0.5
	s0,0.4,0.2,0.5s0.5,0.3,1,0.4c0.4,0.1,0.7,0.3,1,0.4s0.5,0.3,0.7,0.5s0.3,0.4,0.4,0.6c0.1,0.3,0.1,0.5,0,0.8c0,0.4-0.2,0.8-0.4,1.1
	c-0.2,0.3-0.5,0.5-0.8,0.7s-0.6,0.3-1,0.4s-0.8,0.1-1.1,0.1c-0.5,0-0.9,0-1.4-0.1s-0.9-0.2-1.3-0.4l0.6-1.5c0.4,0.2,0.8,0.3,1.2,0.4
	c0.4,0.1,0.8,0.1,1.1,0.1c0.4,0,0.7,0,0.9-0.1c0.2-0.1,0.3-0.3,0.4-0.5c0-0.2,0-0.4-0.3-0.5c-0.2-0.1-0.6-0.3-1.1-0.5
	c-0.8-0.3-1.3-0.5-1.6-0.9c-0.3-0.3-0.4-0.8-0.4-1.3c0-0.4,0.2-0.7,0.4-1c0.2-0.3,0.4-0.5,0.7-0.7c0.3-0.2,0.6-0.3,1-0.4
	s0.7-0.1,1.1-0.1s0.8,0,1.2,0.1c0.4,0.1,0.8,0.2,1.1,0.3L110.6,148.4z"/>
<path id="Fill-340" class="st0" d="M122.6,145.9c-0.3-0.1-0.5-0.2-0.8-0.3s-0.6-0.1-0.9-0.1c-0.5,0-1,0.1-1.4,0.3s-0.8,0.4-1.1,0.8
	c-0.3,0.3-0.5,0.7-0.7,1.1s-0.3,0.9-0.4,1.3c0,0.5,0,0.9,0,1.3c0.1,0.4,0.2,0.8,0.5,1.1c0.2,0.3,0.5,0.6,0.9,0.8s0.8,0.3,1.3,0.3
	c0.4,0,0.7,0,1-0.1s0.6-0.2,0.9-0.3l0.1,1.6c-0.4,0.2-0.8,0.3-1.2,0.3c-0.4,0.1-0.8,0.1-1.3,0.1c-0.8,0-1.4-0.1-2-0.4
	s-1.1-0.6-1.4-1.1s-0.6-1-0.8-1.6c-0.2-0.6-0.2-1.3-0.1-2.1s0.3-1.4,0.6-2.1c0.3-0.6,0.7-1.2,1.2-1.6c0.5-0.5,1.1-0.8,1.7-1.1
	c0.7-0.3,1.4-0.4,2.2-0.4c0.4,0,0.8,0,1.2,0.1c0.4,0.1,0.7,0.2,1.1,0.3L122.6,145.9z"/>
<path id="Fill-342" class="st0" d="M127.2,147.8c-0.5,0-0.8,0.2-1.2,0.5c-0.3,0.3-0.6,0.7-0.7,1.2h3.2c0.1-0.5,0-0.9-0.3-1.2
	C128,148,127.7,147.8,127.2,147.8L127.2,147.8z M125.1,150.9c0,0.3,0,0.6,0.2,0.8c0.1,0.2,0.3,0.4,0.5,0.5s0.4,0.3,0.7,0.3
	c0.3,0.1,0.5,0.1,0.9,0.1c0.3,0,0.6,0,0.9,0c0.3,0,0.6-0.1,0.9-0.2v1.4c-0.3,0.1-0.7,0.2-1.1,0.2s-0.8,0.1-1.2,0.1
	c-0.7,0-1.2-0.1-1.7-0.3s-0.9-0.5-1.2-0.8c-0.3-0.3-0.5-0.7-0.6-1.2s-0.2-1-0.1-1.6c0.1-0.5,0.2-1.1,0.5-1.5
	c0.2-0.5,0.5-0.9,0.9-1.2c0.3-0.3,0.8-0.6,1.3-0.8s1-0.3,1.6-0.3c0.6,0,1,0.1,1.4,0.3s0.7,0.4,0.9,0.7c0.3,0.3,0.4,0.7,0.5,1.1
	c0.1,0.5,0.1,0.9,0,1.5l-0.1,0.8L125.1,150.9L125.1,150.9z"/>
<path id="Fill-344" class="st0" d="M134.2,146.6l-0.1,1l0,0c0.3-0.4,0.5-0.6,1-0.8c0.4-0.2,0.9-0.3,1.3-0.3s0.8,0,1.1,0.2
	c0.3,0.1,0.6,0.3,0.8,0.5c0.2,0.3,0.3,0.5,0.4,0.8s0.1,0.7,0,1.1l-0.6,4.8h-2l0.5-4.1c0-0.3,0-0.5,0-0.8s0-0.5-0.1-0.6
	c-0.1-0.2-0.2-0.3-0.4-0.4c-0.2-0.1-0.4-0.1-0.6-0.1s-0.4,0-0.6,0.1s-0.4,0.2-0.5,0.3s-0.3,0.4-0.5,0.6s-0.2,0.6-0.3,0.9l-0.5,4h-2
	l0.9-7.3L134.2,146.6L134.2,146.6z"/>
<path id="Fill-346" class="st0" d="M140.1,146.6h1.1l0.3-1.9h2l-0.3,1.9h1.5l-0.2,1.5H143l-0.4,3.2c0,0.3,0,0.5,0,0.6
	c0,0.2,0,0.3,0.1,0.3c0,0.1,0.1,0.1,0.2,0.2c0.1,0,0.3,0,0.4,0s0.2,0,0.3,0s0.2,0,0.3,0l-0.2,1.5c-0.2,0-0.4,0-0.6,0s-0.5,0-0.7,0
	c-0.5,0-0.8,0-1.1-0.1s-0.5-0.2-0.6-0.4s-0.2-0.4-0.3-0.7c0-0.3,0-0.6,0-0.9l0.5-3.8h-1.1L140.1,146.6z"/>
<path id="Fill-348" class="st0" d="M149.1,147.8c-0.5,0-0.8,0.2-1.2,0.5c-0.3,0.3-0.6,0.7-0.7,1.2h3.2c0.1-0.5,0-0.9-0.3-1.2
	S149.5,147.8,149.1,147.8L149.1,147.8z M147,150.9c0,0.3,0,0.6,0.2,0.8c0.1,0.2,0.3,0.4,0.5,0.5s0.4,0.3,0.7,0.3
	c0.3,0.1,0.5,0.1,0.9,0.1c0.3,0,0.6,0,0.9,0s0.6-0.1,0.9-0.2v1.4c-0.3,0.1-0.7,0.2-1.1,0.2s-0.8,0.1-1.2,0.1c-0.7,0-1.2-0.1-1.7-0.3
	s-0.9-0.5-1.2-0.8s-0.5-0.7-0.6-1.2s-0.2-1-0.1-1.6c0.1-0.5,0.2-1.1,0.5-1.5c0.2-0.5,0.5-0.9,0.9-1.2s0.8-0.6,1.3-0.8s1-0.3,1.6-0.3
	c0.5,0,1,0.1,1.4,0.3s0.7,0.4,0.9,0.7c0.3,0.3,0.4,0.7,0.5,1.1c0.1,0.5,0.1,0.9,0,1.5l-0.1,0.8L147,150.9L147,150.9z"/>
<path id="Fill-350" class="st0" d="M158.2,148c-0.1,0-0.2,0-0.3,0s-0.2,0-0.3,0c-0.3,0-0.5,0-0.7,0.1s-0.4,0.2-0.6,0.4
	c-0.2,0.2-0.3,0.5-0.5,0.8c-0.1,0.3-0.2,0.7-0.3,1.1l-0.5,3.5h-1.9l0.9-7.3h1.9l-0.1,1l0,0c0.5-0.8,1.1-1.1,2.1-1.1
	c0.1,0,0.2,0,0.3,0s0.2,0,0.3,0L158.2,148z"/>
<path id="Fill-352" class="st1" d="M120.8,68.6c-0.6,1.1-1.9,1.6-3.1,1.2c-2.3-0.7-4.5-1.4-6.7-2c-2.2-0.7-4.5-1.3-6.7-1.8
	c-4.5-1.1-9-2.2-13.5-3l0,0c-2.1-0.4-3.6-2.4-3.2-4.6c0.1-0.4,0.2-0.8,0.4-1.2c2.2-4,4.6-7.6,7.1-11.1s5.2-6.9,8.1-10.1
	c1-1.1,2.7-1.2,3.8-0.2c0.9,0.8,1.1,2.2,0.6,3.2l0,0c-2,3.8-4.1,7.4-6.3,11.1l-3.2,5.4c-0.1,0.2-0.3,0.5-0.4,0.7
	c3,0.7,5.9,1.6,8.8,2.6c2.3,0.8,4.6,1.7,6.8,2.7s4.5,2.1,6.6,3.3C121.1,65.7,121.6,67.3,120.8,68.6"/>
<path id="Fill-354" class="st2" d="M68.2,62.6c-0.4,0.2-0.8,0.3-1.2,0.4l0,0c-4.5,0.8-9,1.8-13.5,3c-2.2,0.6-4.5,1.2-6.7,1.8
	s-4.4,1.3-6.7,2l0,0c-1.4,0.4-2.9-0.4-3.3-1.8c-0.3-1.2,0.2-2.4,1.2-3.1c2.1-1.2,4.3-2.3,6.5-3.3s4.5-1.9,6.8-2.7
	c2.9-1,5.8-1.9,8.8-2.6c-0.1-0.2-0.3-0.5-0.4-0.7l-3.2-5.4c-2.2-3.6-4.3-7.3-6.3-11.1l0,0c-0.7-1.3-0.2-2.9,1.1-3.6
	c1.1-0.6,2.4-0.3,3.2,0.6c2.9,3.2,5.6,6.6,8.1,10.1c2.5,3.5,4.9,7.1,7.1,11.1C70.8,59.1,70.2,61.5,68.2,62.6"/>
<path id="Fill-356" class="st3" d="M96,112.5c-1.2,0.4-2.5,0-3.2-1.1l0,0c-1.5-2.4-2.9-4.9-4.4-7.4l-4.2-7.4L80,89.2
	c-0.3-0.6-0.7-1.1-1-1.7c-0.3,0.6-0.7,1.1-1,1.7l-4.2,7.4l-4.3,7.4c-1.5,2.4-2.9,4.9-4.4,7.3l0,0c-0.8,1.2-2.4,1.6-3.7,0.8
	c-1.1-0.7-1.5-2-1.1-3.2c1-2.7,2.1-5.3,3.3-8c1.1-2.6,2.4-5.2,3.6-7.8c1.3-2.6,2.6-5.2,4-7.7s2.8-5.1,4.5-7.6v-0.1
	c1.2-1.8,3.6-2.3,5.4-1.1c0.4,0.3,0.8,0.7,1.1,1.1c1.7,2.6,3.1,5.1,4.5,7.7c1.3,2.6,2.7,5.1,3.9,7.7c1.3,2.6,2.5,5.2,3.6,7.8
	c1.1,2.7,2.3,5.3,3.4,8C98.1,110.5,97.4,112,96,112.5"/>
<path id="Fill-358" class="st4" d="M76.2,24.3c-0.6-2-0.9-4-1.1-6.1c-0.2-2-0.2-4-0.2-6.1C75,8.1,75.3,4,76.3,0
	c0.4-1.5,1.8-2.4,3.3-2c1,0.3,1.8,1.1,2,2c1,4,1.2,8.1,1.3,12.1c0,2-0.1,4-0.2,6.1c-0.2,2-0.5,4-1.1,6.1c-0.4,1.5-2,2.3-3.5,1.8
	C77.1,25.9,76.5,25.2,76.2,24.3"/>
<path id="Fill-360" class="st5" d="M130.4,86.6c-0.8,1.2-2.3,1.8-3.6,1.3l0,0c-2.9-1-5.7-2.1-8.6-3c-2.9-1-5.8-1.8-8.7-2.7
	c-2.8-0.8-5.6-1.5-8.4-2.1c1.9,3.4,3.8,6.8,5.8,10.3c1.8,3.1,3.5,6.3,5.2,9.6c1.6,3.3,3.3,6.5,4.6,9.9c0.7,1.6-0.1,3.3-1.6,4
	c-1.4,0.6-2.9,0-3.7-1.1L99.7,94.9c-3.9-6-7.8-12.3-11-18.9l0,0c-1.1-2.2-0.2-4.9,2-6.1c0.9-0.4,1.9-0.6,2.8-0.4
	c6.4,1.1,12.6,2.7,18.7,4.9c3,1.1,6,2.3,8.9,3.7s5.7,2.8,8.5,4.5C130.8,83.2,131.3,85.1,130.4,86.6"/>
<path id="Fill-362" class="st6" d="M69.2,75.8L69.2,75.8c-3.3,6.7-7.1,13-11,19l-11.6,18c-0.9,1.4-2.8,1.8-4.2,0.9
	c-1.3-0.8-1.7-2.4-1.2-3.7c1.4-3.4,3-6.7,4.6-10c1.7-3.2,3.4-6.4,5.2-9.6c1.9-3.5,3.9-6.9,5.7-10.3c-2.8,0.7-5.6,1.4-8.4,2.2
	c-2.9,0.8-5.8,1.7-8.7,2.7c-2.9,0.9-5.8,2-8.6,3l0,0c-1.6,0.6-3.3-0.3-3.9-1.8c-0.5-1.4,0.1-2.9,1.3-3.6c2.7-1.7,5.6-3.1,8.5-4.5
	c2.9-1.3,5.9-2.6,8.9-3.7c6-2.2,12.3-3.8,18.7-5c2.4-0.4,4.8,1.2,5.2,3.7C69.7,74,69.6,75,69.2,75.8"/>
<path id="Fill-364" class="st5" d="M120.1,92.3c2,1,3.7,2.2,5.4,3.5s3.2,2.7,4.7,4.3c3,3,5.7,6.3,7.9,10.1c0.7,1.3,0.2,3-1.1,3.7
	c-0.9,0.5-2,0.4-2.9-0.2l0,0c-3.4-2.4-6.5-5.2-9.4-8c-1.5-1.4-2.9-2.9-4.3-4.4c-1.4-1.6-2.7-3.2-3.8-5l0,0c-0.8-1.3-0.4-3,0.9-3.8
	C118.3,91.9,119.3,91.9,120.1,92.3"/>
<path id="Fill-366" class="st6" d="M41.2,96.1c-1.1,1.8-2.4,3.5-3.8,5s-2.8,3-4.3,4.5c-3,2.8-6,5.6-9.4,8l0,0
	c-1.2,0.9-2.9,0.6-3.8-0.7c-0.6-0.9-0.6-2-0.2-2.9c2.1-3.9,4.9-7.1,7.8-10.2c1.5-1.5,3.1-2.9,4.7-4.3c1.7-1.3,3.4-2.5,5.4-3.5
	c1.4-0.7,3-0.1,3.7,1.2C41.8,94.3,41.7,95.3,41.2,96.1L41.2,96.1z"/>
<path id="Fill-368" class="st4" d="M100.7,21.5c-2.6,5.5-5.5,10.9-8.5,16.1c-3,5.3-6.1,10.5-9.4,15.6l0,0c-0.9,1.3-2.3,2.1-3.8,2.1
	l0,0c-1.6,0-3-0.9-3.8-2.1C72,48,68.9,42.8,65.9,37.5c-1.5-2.6-3-5.3-4.4-8s-2.9-5.4-4.2-8.1c-0.7-1.5-0.1-3.3,1.4-4.1
	c1.3-0.7,2.9-0.2,3.7,0.9c1.9,2.4,3.6,4.9,5.4,7.4s3.5,5,5.2,7.5c2,3,4,6.1,6,9.2c2-3.1,4-6.2,6-9.2c3.4-5.1,6.9-10,10.7-14.8
	c1-1.3,2.9-1.6,4.3-0.5C100.9,18.7,101.2,20.3,100.7,21.5"/>
<path class="st0" d="M16.9,137.4h-0.3l0,0C16.7,137.4,16.8,137.4,16.9,137.4z"/>
</svg>
